<svg width="46" height="45" viewBox="0 0 46 45" fill="none" xmlns="http://www.w3.org/2000/svg">
<path fill-rule="evenodd" clip-rule="evenodd" d="M23 0C10.304 0 0 10.08 0 22.5C0 34.92 10.304 45 23 45C35.696 45 46 34.92 46 22.5C46 10.08 35.696 0 23 0ZM37.628 33.3675C34.339 29.4525 26.358 28.125 23 28.125C19.642 28.125 11.661 29.4525 8.372 33.3675C6.026 30.3525 4.6 26.595 4.6 22.5C4.6 12.5775 12.857 4.5 23 4.5C33.143 4.5 41.4 12.5775 41.4 22.5C41.4 26.595 39.974 30.3525 37.628 33.3675ZM14.95 16.875C14.95 12.51 18.538 9 23 9C27.462 9 31.05 12.51 31.05 16.875C31.05 21.24 27.462 24.75 23 24.75C18.538 24.75 14.95 21.24 14.95 16.875Z" fill="white"/>
</svg>
