<svg width="45" height="52" viewBox="0 0 45 52" fill="none" xmlns="http://www.w3.org/2000/svg">
<path d="M44.1351 36.7951C42.1945 34.6866 38.5633 31.5148 38.5633 21.125C38.5633 13.2336 33.091 6.91641 25.7123 5.36656V3.25C25.7123 1.45539 24.2739 0 22.5 0C20.7261 0 19.2877 1.45539 19.2877 3.25V5.36656C11.909 6.91641 6.43666 13.2336 6.43666 21.125C6.43666 31.5148 2.80553 34.6866 0.86491 36.7951C0.262234 37.4502 -0.00495286 38.2332 6.94473e-05 39C0.0111185 40.6656 1.30386 42.25 3.22439 42.25H41.7756C43.6961 42.25 44.9899 40.6656 44.9999 39C45.005 38.2332 44.7378 37.4491 44.1351 36.7951ZM6.7832 37.375C8.91466 34.5343 11.245 29.8259 11.2561 21.1839C11.2561 21.1636 11.25 21.1453 11.25 21.125C11.25 14.8423 16.2864 9.75 22.5 9.75C28.7136 9.75 33.75 14.8423 33.75 21.125C33.75 21.1453 33.7439 21.1636 33.7439 21.1839C33.755 29.8269 36.0853 34.5353 38.2168 37.375H6.7832ZM22.5 52C26.0478 52 28.9255 49.0902 28.9255 45.5H16.0745C16.0745 49.0902 18.9522 52 22.5 52Z" fill="white"/>
</svg>
