<!--?xml version="1.0" standalone="no"?-->
              <svg id="sw-js-blob-svg" viewBox="0 0 100 100" xmlns="http://www.w3.org/2000/svg" version="1.1">
                    <defs> 
                        <linearGradient id="sw-gradient" x1="0" x2="1" y1="1" y2="0">
                            <stop id="stop1" stop-color="rgba(79.667, 217.063, 210.313, 1)" offset="0%"></stop>
                            <stop id="stop2" stop-color="rgba(102.847, 16.959, 198.906, 1)" offset="100%"></stop>
                        </linearGradient>
                    </defs>
                <path fill="url(#sw-gradient)" d="M7.9,-15.5C9.7,-7.8,10.4,-4.9,10.5,-2.2C10.6,0.5,10,3,10.8,10.4C11.5,17.9,13.5,30.3,10.4,33.5C7.3,36.8,-0.9,30.9,-7.8,26.3C-14.7,21.6,-20.3,18.3,-23,13.4C-25.8,8.4,-25.8,2,-22.4,-1.7C-19.1,-5.3,-12.4,-6.1,-8.1,-13.3C-3.8,-20.5,-1.9,-34.2,0.5,-34.9C3,-35.5,6,-23.1,7.9,-15.5Z" width="100%" height="100%" transform="translate(50 50)" stroke-width="0" style="transition: all 0.3s ease 0s;" stroke="url(#sw-gradient)"></path>
              </svg>