<!--?xml version="1.0" standalone="no"?-->
              <svg id="sw-js-blob-svg" viewBox="0 0 100 100" xmlns="http://www.w3.org/2000/svg" version="1.1">
                    <defs> 
                        <linearGradient id="sw-gradient" x1="0" x2="1" y1="1" y2="0">
                            <stop id="stop1" stop-color="rgba(248, 55, 55, 1)" offset="0%"></stop>
                            <stop id="stop2" stop-color="rgba(145.622, 73.92, 251.272, 1)" offset="100%"></stop>
                        </linearGradient>
                    </defs>
                <path fill="url(#sw-gradient)" d="M7,-14.8C8,-7.6,6.8,-4.3,11.5,1.1C16.1,6.5,26.7,14,27.5,19.1C28.4,24.2,19.6,27,11.8,27.7C4.1,28.4,-2.7,27.1,-7.3,23.8C-12,20.5,-14.7,15.3,-17.9,10.1C-21.1,5,-24.8,0,-25.9,-6.5C-27.1,-12.9,-25.5,-20.8,-20.8,-27.3C-16,-33.8,-8,-39.1,-2.5,-36.1C3.1,-33.2,6.1,-22,7,-14.8Z" width="100%" height="100%" transform="translate(50 50)" stroke-width="0" style="transition: all 0.3s ease 0s;"></path>
              </svg>