<!--?xml version="1.0" standalone="no"?-->
              <svg id="sw-js-blob-svg" viewBox="0 0 100 100" xmlns="http://www.w3.org/2000/svg" version="1.1">
                    <defs> 
                        <linearGradient id="sw-gradient" x1="0" x2="1" y1="1" y2="0">
                            <stop id="stop1" stop-color="rgba(47.638, 0, 233.058, 1)" offset="0%"></stop>
                            <stop id="stop2" stop-color="rgba(255, 0, 0, 1)" offset="100%"></stop>
                        </linearGradient>
                    </defs>
                <path fill="url(#sw-gradient)" d="M12.6,-25.3C12.7,-21.9,6.5,-11,11.2,-5.6C15.8,-0.1,31.3,-0.1,34.2,1.7C37.2,3.5,27.6,6.9,23.8,13.9C20.1,20.9,22.1,31.4,19.1,31.6C16.1,31.8,8.1,21.7,2.4,17.6C-3.3,13.5,-6.6,15.4,-9.4,15C-12.1,14.7,-14.3,12.1,-18,9.2C-21.7,6.3,-27,3.2,-25.2,1.1C-23.3,-1.1,-14.4,-2.1,-12.3,-7.8C-10.2,-13.5,-14.9,-23.7,-14,-26.7C-13.1,-29.7,-6.5,-25.3,-0.1,-25.1C6.3,-24.9,12.6,-28.8,12.6,-25.3Z" width="100%" height="100%" transform="translate(50 50)" stroke-width="0" style="transition: all 0.3s ease 0s;"></path>
              </svg>